<svg xmlns="http://www.w3.org/2000/svg" xmlns:xlink="http://www.w3.org/1999/xlink" width="56" height="56" viewBox="0 0 56 56">
  <defs>
    <clipPath id="clip-Artboard_28">
      <rect width="56" height="56"/>
    </clipPath>
  </defs>
  <g id="Artboard_28" data-name="Artboard – 28" clip-path="url(#clip-Artboard_28)">
    <rect width="56" height="56" fill="rgba(255,255,255,0)"/>
    <g id="Group_138" data-name="Group 138" transform="translate(3.169 3.683)">
      <path id="Exclusion_1" data-name="Exclusion 1" d="M22.575,45.148A22.575,22.575,0,0,1,6.612,6.611,22.575,22.575,0,1,1,38.538,38.537,22.431,22.431,0,0,1,22.575,45.148ZM33.862,18.812a3.762,3.762,0,1,0,3.763,3.762A3.766,3.766,0,0,0,33.862,18.812Zm-11.288,0a3.762,3.762,0,1,0,3.762,3.762A3.767,3.767,0,0,0,22.575,18.812Zm-11.286,0a3.762,3.762,0,1,0,3.762,3.762A3.767,3.767,0,0,0,11.289,18.812Z" transform="translate(3.37 0.031)" fill="#fff3f7"/>
      <path id="Polygon_1" data-name="Polygon 1" d="M5.344,0l5.344,12.709H0Z" transform="translate(5.843 50.604) rotate(-131)" fill="#fff3f7"/>
    </g>
  </g>
</svg>
