<?xml version="1.0"?>
<svg xmlns="http://www.w3.org/2000/svg" xmlns:xlink="http://www.w3.org/1999/xlink" xmlns:svgjs="http://svgjs.com/svgjs" version="1.1" width="512" height="512" x="0" y="0" viewBox="0 0 16.933333 16.933333" style="enable-background:new 0 0 512 512" xml:space="preserve" class=""><g><path xmlns="http://www.w3.org/2000/svg" id="comm-16_chat" d="m8.4672214.52916635c-4.3804601 0-7.93749988 3.55711645-7.93749988 7.93801575.002646 1.4018996.3835638 2.7739209 1.08933988 3.9832209l-1.07590435 3.22771c-.068961.206899.12800806.403762.33486195.334862l3.0871504-1.028877c1.3231707.916 2.8896786 1.417669 4.5015361 1.420069 4.3807115-.000101 7.9375025-3.5569 7.9375005-7.9375008-.000006-4.3807008-3.556535-7.93739935-7.9369846-7.93749985zm-2.652551 7.14374985c.435229 0 .7937526.3585502.79375.79375-.000008.4353005-.3585263.7937495-.79375.7937495s-.7932288-.358449-.7932341-.7937495c-.0000026-.4351998.3580051-.79375.7932341-.79375zm2.652551 0c.435229 0 .7937527.3585502.79375.79375-.0000053.4353005-.3585263.7937495-.79375.7937495s-.7937447-.358449-.79375-.7937495c-.0000026-.4351998.3585184-.79375.79375-.79375zm2.6391156 0c.435229 0 .793753.3585502.79375.79375-.000005.4353005-.358526.7937495-.79375.7937495s-.793745-.358449-.79375-.7937495c-.000003-.4351998.358521-.79375.79375-.79375z" font-variant-ligatures="normal" font-variant-position="normal" font-variant-caps="normal" font-variant-numeric="normal" font-variant-alternates="normal" font-feature-settings="normal" text-indent="0" text-align="start" text-decoration-line="none" text-decoration-style="solid" text-decoration-color="rgb(0,0,0)" text-transform="none" text-orientation="mixed" white-space="normal" shape-padding="0" isolation="auto" mix-blend-mode="normal" solid-color="rgb(0,0,0)" solid-opacity="1" vector-effect="none" paint-order="fill markers stroke" fill="#fff3f7" data-original="#000000" style=""/></g></svg>
