<?xml version="1.0"?>
<svg xmlns="http://www.w3.org/2000/svg" xmlns:xlink="http://www.w3.org/1999/xlink" xmlns:svgjs="http://svgjs.com/svgjs" version="1.1" width="512" height="512" x="0" y="0" viewBox="0 0 512 512" style="enable-background:new 0 0 512 512" xml:space="preserve" class=""><g>
<g xmlns="http://www.w3.org/2000/svg">
	<g>
		<path d="M219.753,207.001c-27.019,0-49,21.981-49,49s21.981,49,49,49c27.019,0,49-21.981,49-49    C268.753,228.981,246.771,207.001,219.753,207.001z" fill="#ffffff" data-original="#000000" style=""/>
	</g>
</g>
<g xmlns="http://www.w3.org/2000/svg">
	<g>
		<path d="M219.854,110.763c-64.927,0-120.037,42.827-138.573,101.713c-8.301-5.544-18.264-8.784-28.973-8.784    C23.465,203.693,0,227.158,0,256.001s23.465,52.308,52.308,52.308c10.709,0,20.673-3.24,28.973-8.784    c18.536,58.887,73.645,101.713,138.573,101.713c76.316,0,139.072-59.161,144.81-134.032L512,221.811V110.763H219.854z     M52.308,278.309C40.007,278.309,30,268.301,30,256.001c0-12.301,10.007-22.308,22.308-22.308    c12.301,0,22.308,10.007,22.308,22.308C74.616,268.301,64.609,278.309,52.308,278.309z M219.753,335.001c-43.561,0-79-35.44-79-79    c0-43.561,35.439-79,79-79c43.561,0,79,35.439,79,79C298.753,299.561,263.314,335.001,219.753,335.001z" fill="#ffffff" data-original="#000000" style=""/>
	</g>
</g>
<g xmlns="http://www.w3.org/2000/svg">
</g>
<g xmlns="http://www.w3.org/2000/svg">
</g>
<g xmlns="http://www.w3.org/2000/svg">
</g>
<g xmlns="http://www.w3.org/2000/svg">
</g>
<g xmlns="http://www.w3.org/2000/svg">
</g>
<g xmlns="http://www.w3.org/2000/svg">
</g>
<g xmlns="http://www.w3.org/2000/svg">
</g>
<g xmlns="http://www.w3.org/2000/svg">
</g>
<g xmlns="http://www.w3.org/2000/svg">
</g>
<g xmlns="http://www.w3.org/2000/svg">
</g>
<g xmlns="http://www.w3.org/2000/svg">
</g>
<g xmlns="http://www.w3.org/2000/svg">
</g>
<g xmlns="http://www.w3.org/2000/svg">
</g>
<g xmlns="http://www.w3.org/2000/svg">
</g>
<g xmlns="http://www.w3.org/2000/svg">
</g>
</g></svg>
